<svg xmlns="http://www.w3.org/2000/svg" width="24" height="24" viewBox="0 0 24 24">
  <g id="Group_57351" data-name="Group 57351" transform="translate(-866 -437)">
    <rect id="Rectangle_15899" data-name="Rectangle 15899" width="24" height="24" rx="4" transform="translate(866 437)" fill="#f6f7f8" opacity="0"/>
    <g id="svgexport-17" transform="translate(866.567 438.414)">
      <path id="Path_12247" data-name="Path 12247" d="M9.343,7.8h5.884a.573.573,0,1,0,0-1.146H9.343a.573.573,0,0,0,0,1.146Zm0,3.115h2.645a.573.573,0,1,0,0-1.146H9.343a.573.573,0,0,0,0,1.146Z" transform="translate(-1.94 -2.018)"/>
      <path id="Path_12248" data-name="Path 12248" d="M16.659,1.1H6.206A2.779,2.779,0,0,0,3.43,3.876V15.494A2.779,2.779,0,0,0,6.206,18.27h2.9a.573.573,0,0,0,0-1.146h-2.9a1.632,1.632,0,0,1-1.63-1.63V3.876a1.631,1.631,0,0,1,1.63-1.63H16.659a1.632,1.632,0,0,1,1.63,1.63V15.494a1.619,1.619,0,0,1-1.12,1.544.573.573,0,1,0,.356,1.089,2.763,2.763,0,0,0,1.911-2.633V3.876A2.78,2.78,0,0,0,16.659,1.1Z"/>
      <path id="Path_12249" data-name="Path 12249" d="M17.074,16.677a3.057,3.057,0,0,0-2.147,5.236v3.246a.573.573,0,0,0,.888.479l1.26-.826,1.26.826a.574.574,0,0,0,.888-.479V21.912a3.056,3.056,0,0,0-2.149-5.235Zm0,1.146a1.914,1.914,0,1,1-1.914,1.914A1.916,1.916,0,0,1,17.074,17.823Zm1,6.275-.686-.451a.576.576,0,0,0-.629,0l-.686.451V22.616a2.841,2.841,0,0,0,2,0Z" transform="translate(-3.845 -5.66)"/>
    </g>
  </g>
</svg>
