<svg xmlns="http://www.w3.org/2000/svg" width="76.987" height="59.187" viewBox="0 0 76.987 59.187">
  <g id="svgexport-17_4_" data-name="svgexport-17 (4)" transform="translate(0.5 0.5)">
    <path id="Path_12319" data-name="Path 12319" d="M72.257,9.9c4.269,4.7,6.83,9.819,6.83,18.357,0,14.941-10.672,28.175-25.614,35.005l-3.842-5.55c14.088-7.684,17.076-17.5,17.93-23.906a12.659,12.659,0,0,1-8.111,1.281c-7.684-.854-13.661-6.83-13.661-14.941A16.844,16.844,0,0,1,50.058,9.469,14.159,14.159,0,0,1,60.731,5.2,16.79,16.79,0,0,1,72.257,9.9Zm-42.689,0c4.269,4.7,6.83,9.819,6.83,18.357,0,14.941-10.672,28.175-25.614,35.005l-3.842-5.55c14.088-7.684,17.076-17.5,17.93-23.906a12.659,12.659,0,0,1-8.111,1.281C9.077,34.229,3.1,28.252,3.1,20.141A16.844,16.844,0,0,1,7.369,9.469C9.93,6.481,13.772,5.2,18.041,5.2A16.79,16.79,0,0,1,29.567,9.9Z" transform="translate(-3.1 -5.2)" fill="none" stroke="#e4e7ef" stroke-width="1"/>
  </g>
</svg>
